<?xml version="1.0" encoding="UTF-8" standalone="no"?>
<!-- Created with Inkscape (http://www.inkscape.org/) -->

<svg
   xmlns:dc="http://purl.org/dc/elements/1.1/"
   xmlns:cc="http://creativecommons.org/ns#"
   xmlns:rdf="http://www.w3.org/1999/02/22-rdf-syntax-ns#"
   xmlns:svg="http://www.w3.org/2000/svg"
   xmlns="http://www.w3.org/2000/svg"
   xmlns:sodipodi="http://sodipodi.sourceforge.net/DTD/sodipodi-0.dtd"
   xmlns:inkscape="http://www.inkscape.org/namespaces/inkscape"
   width="64"
   height="64"
   viewBox="0 0 64.000001 64.000001"
   id="svg2"
   version="1.1"
   inkscape:version="0.91 r13725"
   sodipodi:docname="openqa2.svg"
   inkscape:export-filename="/home/duffy/Documents/Favors/openqa logo/1/openqa_64.png"
   inkscape:export-xdpi="90"
   inkscape:export-ydpi="90">
  <defs
     id="defs4" />
  <sodipodi:namedview
     id="base"
     pagecolor="#ffffff"
     bordercolor="#666666"
     borderopacity="1.0"
     inkscape:pageopacity="0.0"
     inkscape:pageshadow="2"
     inkscape:zoom="1"
     inkscape:cx="22.823762"
     inkscape:cy="19.296632"
     inkscape:document-units="px"
     inkscape:current-layer="g11147"
     showgrid="false"
     units="px"
     inkscape:snap-global="false"
     showguides="false"
     inkscape:guide-bbox="true"
     inkscape:window-width="1920"
     inkscape:window-height="1005"
     inkscape:window-x="0"
     inkscape:window-y="38"
     inkscape:window-maximized="1">
    <inkscape:grid
       type="xygrid"
       id="grid10690" />
    <sodipodi:guide
       position="27.75,-0.62500001"
       orientation="0.81915204,0.57357644"
       id="guide10888"
       inkscape:label=""
       inkscape:color="rgb(0,0,255)" />
    <sodipodi:guide
       position="48.436815,16.61701"
       orientation="0,1"
       id="guide10894" />
    <sodipodi:guide
       position="37.000001,12.125"
       orientation="0,1"
       id="guide11003" />
  </sodipodi:namedview>
  <metadata
     id="metadata7">
    <rdf:RDF>
      <cc:Work
         rdf:about="">
        <dc:format>image/svg+xml</dc:format>
        <dc:type
           rdf:resource="http://purl.org/dc/dcmitype/StillImage" />
        <dc:title />
      </cc:Work>
    </rdf:RDF>
  </metadata>
  <g
     inkscape:label="Layer 1"
     inkscape:groupmode="layer"
     id="layer1"
     transform="translate(0,-988.36216)">
    <circle
       r="24.428156"
       cy="971.87488"
       cx="349.5"
       id="circle10731"
       style="opacity:1;fill:#a07cbc;fill-opacity:1;stroke:none;stroke-width:3;stroke-linecap:round;stroke-linejoin:round;stroke-miterlimit:4;stroke-dasharray:none;stroke-opacity:1" />
    <circle
       style="opacity:1;fill:#ffffff;fill-opacity:1;stroke:none;stroke-width:3;stroke-linecap:round;stroke-linejoin:round;stroke-miterlimit:4;stroke-dasharray:none;stroke-opacity:1"
       id="circle10733"
       cx="349.5"
       cy="971.87488"
       r="18.580925" />
    <rect
       y="985.021"
       x="346.01263"
       height="17.194174"
       width="6.9747562"
       id="rect10735"
       style="opacity:1;fill:#a07cbc;fill-opacity:1;stroke:none;stroke-width:3;stroke-linecap:round;stroke-linejoin:round;stroke-miterlimit:4;stroke-dasharray:none;stroke-opacity:1" />
    <g
       id="g10813"
       transform="translate(317,75)">
      <g
         id="g10804"
         transform="matrix(0.86056793,0.13028675,0.14597932,0.86308313,-149.02124,77.20457)">
        <rect
           transform="matrix(0.70701353,-0.70720002,0.70701486,0.70719869,0,0)"
           style="opacity:1;fill:#a07cbc;fill-opacity:1;stroke:none;stroke-width:3;stroke-linecap:round;stroke-linejoin:round;stroke-miterlimit:4;stroke-dasharray:none;stroke-opacity:1"
           id="rect10806"
           width="6.7803535"
           height="14.337267"
           x="-714.66187"
           y="735.64832" />
        <path
           style="opacity:1;fill:#ffffff;fill-opacity:1;stroke:none;stroke-width:3;stroke-linecap:round;stroke-linejoin:round;stroke-miterlimit:4;stroke-dasharray:none;stroke-opacity:1"
           d="m 14.305891,1030.8367 1.459536,-4.1883 9.894902,9.835 -2.834529,2.8217 z"
           id="path10808"
           inkscape:connector-curvature="0"
           sodipodi:nodetypes="ccccc" />
      </g>
      <path
         inkscape:connector-curvature="0"
         id="path10796"
         d="m 36.591145,950.5468 a 14.269011,14.269011 0 0 0 0.0014,20.1805 14.269011,14.269011 0 0 0 20.179035,-10e-5 14.269011,14.269011 0 0 0 4.5e-5,-20.179 14.269011,14.269011 0 0 0 -20.180449,0 z m 4.068127,4.0681 a 8.5164827,8.5164827 0 0 1 12.04423,0 8.5164827,8.5164827 0 0 1 -8e-5,12.0428 8.5164827,8.5164827 0 0 1 -12.042816,10e-5 8.5164827,8.5164827 0 0 1 -0.0013,-12.0443 z"
         style="opacity:1;fill:#a07cbc;fill-opacity:1;stroke:none;stroke-width:3;stroke-linecap:round;stroke-linejoin:round;stroke-miterlimit:4;stroke-dasharray:none;stroke-opacity:1" />
      <path
         style="opacity:1;fill:#a07cbc;fill-opacity:1;stroke:none;stroke-width:3;stroke-linecap:round;stroke-linejoin:round;stroke-miterlimit:4;stroke-dasharray:none;stroke-opacity:1"
         d="m 55,962.3641 6,-2 0,14.3927 -6,0 z"
         id="path10798"
         inkscape:connector-curvature="0"
         sodipodi:nodetypes="ccccc" />
      <path
         style="opacity:1;fill:#a07cbc;fill-opacity:1;stroke:none;stroke-width:3;stroke-linecap:round;stroke-linejoin:round;stroke-miterlimit:4;stroke-dasharray:none;stroke-opacity:1"
         d="m 4.591145,950.5468 a 14.269011,14.269011 0 0 0 0.0014,20.1805 14.269011,14.269011 0 0 0 20.179035,-10e-5 14.269011,14.269011 0 0 0 4.5e-5,-20.179 14.269011,14.269011 0 0 0 -20.180449,0 z m 4.068127,4.0681 a 8.5164827,8.5164827 0 0 1 12.04423,0 8.5164827,8.5164827 0 0 1 -8e-5,12.0428 8.5164827,8.5164827 0 0 1 -12.042816,10e-5 8.5164827,8.5164827 0 0 1 -0.0013,-12.0443 z"
         id="path10800"
         inkscape:connector-curvature="0" />
      <path
         sodipodi:nodetypes="ccccc"
         inkscape:connector-curvature="0"
         id="path10802"
         d="m 52.181979,962.7446 3,-1.9386 0,13.9508 -3,0 z"
         style="opacity:1;fill:#ffffff;fill-opacity:1;stroke:none;stroke-width:3;stroke-linecap:round;stroke-linejoin:round;stroke-miterlimit:4;stroke-dasharray:none;stroke-opacity:1" />
    </g>
    <path
       style="opacity:1;fill:#a07cbc;fill-opacity:1;stroke:none;stroke-width:3;stroke-linecap:round;stroke-linejoin:round;stroke-miterlimit:4;stroke-dasharray:none;stroke-opacity:1"
       d="m 376.59114,1070.2716 a 14.269011,14.269011 0 0 0 10e-4,20.1805 14.269011,14.269011 0 0 0 20.17903,-10e-5 14.269011,14.269011 0 0 0 5e-5,-20.179 14.269011,14.269011 0 0 0 -20.18045,0 z m 4.06813,4.0681 a 8.5164827,8.5164827 0 0 1 12.04423,0 8.5164827,8.5164827 0 0 1 -8e-5,12.0428 8.5164827,8.5164827 0 0 1 -12.04281,10e-5 8.5164827,8.5164827 0 0 1 -0.001,-12.0443 z"
       id="path10826"
       inkscape:connector-curvature="0" />
    <path
       sodipodi:nodetypes="ccccc"
       inkscape:connector-curvature="0"
       id="path10828"
       d="m 395,1082.3641 6,-2 0,14.3927 -6,0 z"
       style="opacity:1;fill:#a07cbc;fill-opacity:1;stroke:none;stroke-width:3;stroke-linecap:round;stroke-linejoin:round;stroke-miterlimit:4;stroke-dasharray:none;stroke-opacity:1" />
    <path
       inkscape:connector-curvature="0"
       id="path10830"
       d="m 353.69514,1070.2716 a 14.269011,14.269011 0 0 0 0.001,20.1805 14.269011,14.269011 0 0 0 20.17903,-10e-5 14.269011,14.269011 0 0 0 5e-5,-20.179 14.269011,14.269011 0 0 0 -20.18045,0 z m 4.06813,4.0681 a 8.5164827,8.5164827 0 0 1 12.04423,0 8.5164827,8.5164827 0 0 1 -8e-5,12.0428 8.5164827,8.5164827 0 0 1 -12.04281,10e-5 8.5164827,8.5164827 0 0 1 -10e-4,-12.0443 z"
       style="opacity:1;fill:#a07cbc;fill-opacity:1;stroke:none;stroke-width:3;stroke-linecap:round;stroke-linejoin:round;stroke-miterlimit:4;stroke-dasharray:none;stroke-opacity:1" />
    <path
       style="opacity:1;fill:#ffffff;fill-opacity:1;stroke:none;stroke-width:3;stroke-linecap:round;stroke-linejoin:round;stroke-miterlimit:4;stroke-dasharray:none;stroke-opacity:1"
       d="m 389.82843,1084.7446 5.35355,-3.9386 0,13.9508 -5.35355,2 z"
       id="path10832"
       inkscape:connector-curvature="0"
       sodipodi:nodetypes="ccccc" />
    <path
       sodipodi:nodetypes="cscccc"
       inkscape:connector-curvature="0"
       id="path10834"
       d="m 376.11958,1089.9579 c -2.22434,-2.5378 -3.23912,-4.7821 -3.23912,-9.1946 0,-5.6013 -3.21762,-8.9282 -8.60713,-8.9282 -2.63532,-0.1444 -2.30882,2.52 -2.30882,2.52 l 13.65599,17.4126 z"
       style="fill:#ffffff;fill-opacity:1;fill-rule:evenodd;stroke:none;stroke-width:1px;stroke-linecap:butt;stroke-linejoin:miter;stroke-opacity:1" />
    <g
       transform="matrix(-0.26830661,-0.66190656,0.66140909,-0.56779248,-303.28092,1687.7796)"
       id="g10836">
      <g
         transform="matrix(0.93971436,-0.74015941,0.74863101,0.47449922,-767.92371,554.64423)"
         id="g10838">
        <rect
           y="735.64832"
           x="-714.66187"
           height="14.337267"
           width="6.7803535"
           id="rect10840"
           style="opacity:1;fill:#a07cbc;fill-opacity:1;stroke:none;stroke-width:3;stroke-linecap:round;stroke-linejoin:round;stroke-miterlimit:4;stroke-dasharray:none;stroke-opacity:1"
           transform="matrix(0.70701353,-0.70720002,0.70701486,0.70719869,0,0)" />
        <path
           sodipodi:nodetypes="ccccc"
           inkscape:connector-curvature="0"
           id="path10842"
           d="m 14.305891,1030.8367 1.459536,-4.1883 9.894902,9.835 -2.834529,2.8217 z"
           style="opacity:1;fill:#ffffff;fill-opacity:1;stroke:none;stroke-width:3;stroke-linecap:round;stroke-linejoin:round;stroke-miterlimit:4;stroke-dasharray:none;stroke-opacity:1" />
      </g>
    </g>
    <path
       sodipodi:nodetypes="cscccccccccczcc"
       inkscape:connector-curvature="0"
       id="path10866"
       d="m 286.47461,1006.0946 c -3.71233,0.054 -7.25751,1.5524 -9.88281,4.1777 -5.57257,5.5724 -5.57257,14.6073 0,20.1797 3.4648,3.4594 8.46132,4.1053 13.23633,3.0229 l 0,-5.2045 c -3.15903,1.2568 -6.76293,0.5144 -9.16797,-1.8887 -3.32382,-3.3255 -3.32382,-8.7155 0,-12.041 1.62755,-1.6279 3.84478,-2.5276 6.14648,-2.4942 2.21508,0.033 4.33019,0.9275 5.89649,2.4942 1.70307,1.7095 2.60102,4.0612 2.53976,5.263 l -0.0613,15.153 5.81836,0 c 0,0 -0.14518,-13.3467 -0.0252,-16.2781 0.11999,-2.9315 -1.5255,-5.5235 -4.20333,-8.2063 -2.72676,-2.7267 -6.44107,-4.2337 -10.29687,-4.1777 z"
       style="opacity:1;fill:#a07cbc;fill-opacity:1;stroke:none;stroke-width:3;stroke-linecap:round;stroke-linejoin:round;stroke-miterlimit:4;stroke-dasharray:none;stroke-opacity:1" />
    <path
       id="path10868"
       d="m 263.57813,1006.0946 a 14.269011,14.269011 0 0 0 -9.88282,4.1777 14.269011,14.269011 0 0 0 0.002,20.1797 14.269011,14.269011 0 0 0 15.01367,3.2754 l 1.66602,2.5625 4.0957,-2.7012 -1.50586,-2.3164 a 14.269011,14.269011 0 0 0 0.0215,-0.018 l -3.18554,-4.8691 a 8.5164827,8.5164827 0 0 1 -0.008,0.01 l -1.69336,-2.6055 -4.09766,2.7012 1.44336,2.2188 a 8.5164827,8.5164827 0 0 1 -7.68359,-2.3262 8.5164827,8.5164827 0 0 1 0,-12.041 8.5164827,8.5164827 0 0 1 12.04296,0 8.5164827,8.5164827 0 0 1 1.76758,9.4629 l 3.46875,5.3047 a 14.269011,14.269011 0 0 0 -1.16797,-18.836 14.269011,14.269011 0 0 0 -10.29687,-4.1777 z"
       style="opacity:1;fill:#a07cbc;fill-opacity:1;stroke:none;stroke-width:3;stroke-linecap:round;stroke-linejoin:round;stroke-miterlimit:4;stroke-dasharray:none;stroke-opacity:1"
       inkscape:connector-curvature="0" />
    <path
       sodipodi:nodetypes="cscccc"
       inkscape:connector-curvature="0"
       id="path10870"
       d="m 276.11958,1029.9579 c -2.22434,-2.5378 -3.23912,-4.7821 -3.23912,-9.1946 0,-5.6013 -3.21762,-8.9282 -8.60713,-8.9282 -2.63532,-0.1444 -2.30882,2.52 -2.30882,2.52 l 13.65599,17.4126 z"
       style="fill:#ffffff;fill-opacity:1;fill-rule:evenodd;stroke:none;stroke-width:1px;stroke-linecap:butt;stroke-linejoin:miter;stroke-opacity:1" />
    <path
       style="opacity:1;fill:#a07cbc;fill-opacity:1;stroke:none;stroke-width:3;stroke-linecap:round;stroke-linejoin:round;stroke-miterlimit:4;stroke-dasharray:none;stroke-opacity:1"
       d="m -125.01131,840.83232 c -6.68621,-0.029 -12.87391,5.26426 -13.86133,11.88086 -0.99446,5.6037 1.66174,11.9416 6.92578,14.4492 3.11534,1.519 6.72352,2.3474 10.18164,1.7149 l 3.39648,3.7089 5.98438,-0.021 c -2.88021,-4.1575 -7.76042,-10.3151 -10.64063,-14.4727 -1.972,0.059 -3.94401,0.1184 -5.91601,0.1777 1.1289,1.5794 2.25781,3.1588 3.38672,4.7383 -3.76332,0.4056 -7.20164,-2.6104 -7.72852,-6.2832 -1.01241,-5.0112 3.25946,-10.24643 8.40039,-10.13083 3.56316,-0.3505 7.48655,1.54453 8.57813,5.13083 1.3286,3.3715 0.72213,7.4498 -2.21875,9.6543 l 3.27343,4.6406 c 1.48303,-0.6807 3.14306,-2.3257 3.71875,-3.1425 2.35462,4.1732 8.96339,6.5937 12.117191,5.1386 2.100109,-0.9689 2.057282,-1.8484 3.921875,-1.5468 l -3.023437,-4.1602 c -2.504719,1.6685 -4.986129,1.3106 -7.583989,-0.4023 -3.0292,-1.9974 -4.47879,-7.4167 -1.49023,-10.8653 2.82722,-3.712 8.960564,-3.85261 11.953125,-0.2734 1.572426,1.6167 2.180762,4.2668 2.007813,6.4375 l -5.675782,-0.018 9.017578,12.2754 7.365235,0.012 -5.732422,-9.1445 c 0.62515,-2.8245 0.944902,-6.4761 -0.511719,-9.1426 -2.000027,-4.83859 -6.895277,-8.37915 -12.187498,-8.34765 -4.30216,-0.1005 -8.44227,1.96864 -10.98047,5.39455 -2.15437,-4.30781 -5.9984,-6.64891 -10.17578,-7.21681 -0.82618,-0.1346 -1.66497,-0.1958 -2.50195,-0.1836 z"
       id="path10773-4"
       inkscape:connector-curvature="0"
       sodipodi:nodetypes="cccccccccccccccsccsccccccccccccc" />
    <path
       style="opacity:1;fill:#a07cbc;fill-opacity:1;stroke:none;stroke-width:3;stroke-linecap:round;stroke-linejoin:round;stroke-miterlimit:4;stroke-dasharray:none;stroke-opacity:1"
       d="m -106.80797,841.09994 -3.8729,-5.5202 15.851916,-0.01 3.817442,5.5202 z"
       id="rect10931"
       inkscape:connector-curvature="0"
       sodipodi:nodetypes="ccccc" />
    <path
       sodipodi:nodetypes="ccccc"
       inkscape:connector-curvature="0"
       id="path10934"
       d="m -85.760983,839.95284 -5.99669,0.052 -6.419801,8.77874 5.99669,-0.052 z"
       style="opacity:1;fill:#a07cbc;fill-opacity:1;stroke:none;stroke-width:3;stroke-linecap:round;stroke-linejoin:round;stroke-miterlimit:4;stroke-dasharray:none;stroke-opacity:1" />
    <path
       sodipodi:nodetypes="ccccc"
       inkscape:connector-curvature="0"
       id="path10936"
       d="m -114.24425,875.15458 3.4979,-3.8952 -15.85191,-0.01 -3.44245,3.8952 z"
       style="opacity:1;fill:#a07cbc;fill-opacity:1;stroke:none;stroke-width:3;stroke-linecap:round;stroke-linejoin:round;stroke-miterlimit:4;stroke-dasharray:none;stroke-opacity:1" />
    <path
       sodipodi:nodetypes="cccccccccccccccscccccccccccccccc"
       inkscape:connector-curvature="0"
       id="path10963"
       d="m 17.578125,866.0946 c -6.686205,-0.029 -12.87391,5.2642 -13.8613281,11.8808 -0.9944582,5.6037 1.6617458,11.9417 6.9257811,14.4493 3.115344,1.519 6.723519,2.3473 10.181641,1.7148 0.502966,0.4991 0.703132,1.5673 1.396484,1.709 1.994724,-0.01 3.989651,-0.014 5.984375,-0.021 -2.880208,-4.1575 -5.760417,-8.315 -8.640625,-12.4726 -1.972005,0.059 -3.94401,0.1184 -5.916015,0.1777 1.128906,1.5794 2.257812,3.1588 3.386718,4.7383 -3.763321,0.4056 -7.2016361,-2.6104 -7.7285154,-6.2832 -1.0124092,-5.0112 3.2594634,-10.2465 8.4003904,-10.1309 3.563161,-0.3505 7.486552,1.5446 8.578125,5.1309 1.328601,3.3715 0.722175,7.4493 -2.218712,9.6538 l 3.273437,4.6401 c 1.483024,-0.6807 3.143019,-2.3248 3.718713,-3.1416 2.354618,4.1732 8.716524,5.8452 12.117187,5.1387 3.400663,-0.7065 3.384181,-1.0947 5.078125,-2.5899 l -2.929687,-4.1132 c -2.299816,2.6754 -5.589645,2.0664 -8.396485,0.4687 -3.934925,-2.2999 -4.916298,-8.1764 -1.927734,-11.625 2.827221,-3.712 8.960564,-3.8526 11.953125,-0.2734 1.572426,1.6167 2.180762,4.2673 2.007813,6.438 l -5.676355,-0.018 9.018574,12.2764 7.363854,0.01 -5.731388,-9.1426 c 0.62515,-2.8245 0.944826,-6.4771 -0.511795,-9.1436 -2.000027,-4.8386 -6.895277,-8.3791 -12.1875,-8.3476 -4.302163,-0.1005 -8.442273,2.1463 -10.980469,5.5722 -2.596314,-3.1588 -5.998402,-5.9418 -10.175781,-6.5097 -0.826177,-0.1346 -1.664971,-0.1958 -2.501953,-0.1836 z"
       style="opacity:1;fill:#a07cbc;fill-opacity:1;stroke:none;stroke-width:3;stroke-linecap:round;stroke-linejoin:round;stroke-miterlimit:4;stroke-dasharray:none;stroke-opacity:1" />
    <rect
       transform="matrix(0.79047834,-0.61249,0.61249,0.79047834,0,0)"
       y="724.34412"
       x="-508.51541"
       height="18.738329"
       width="2.1213202"
       id="rect10965"
       style="opacity:1;fill:#ffffff;fill-opacity:1;stroke:none;stroke-width:3;stroke-linecap:round;stroke-linejoin:round;stroke-miterlimit:4;stroke-dasharray:none;stroke-opacity:1" />
    <path
       style="fill:#ffffff;fill-opacity:1;fill-rule:evenodd;stroke:none;stroke-width:1px;stroke-linecap:butt;stroke-linejoin:miter;stroke-opacity:1"
       d="m -6.865255,1029.5186 c -2.22434,-2.5378 -3.23912,-4.7821 -3.23912,-9.1946 0,-5.6013 -3.21762,-8.9282 -8.60713,-8.9282 -2.63532,-0.1444 -2.30882,2.52 -2.30882,2.52 l 13.65599,17.4126 z"
       id="path10971"
       inkscape:connector-curvature="0"
       sodipodi:nodetypes="cscccc" />
    <rect
       transform="matrix(0.60864247,-0.79344461,0.79344461,0.60864247,0,0)"
       y="592.23785"
       x="-833.57098"
       height="19.5625"
       width="3.5625"
       id="rect11097"
       style="opacity:1;fill:#ffffff;fill-opacity:1;stroke:none;stroke-width:5.9000001;stroke-linecap:round;stroke-linejoin:round;stroke-miterlimit:4;stroke-dasharray:none;stroke-opacity:1" />
    <text
       xml:space="preserve"
       style="font-style:normal;font-weight:normal;font-size:40px;line-height:125%;font-family:Sans;letter-spacing:0px;word-spacing:0px;fill:#000000;fill-opacity:1;stroke:none;stroke-width:1px;stroke-linecap:butt;stroke-linejoin:miter;stroke-opacity:1"
       x="-152"
       y="1049.6122"
       id="text10981"
       sodipodi:linespacing="125%"><tspan
         sodipodi:role="line"
         id="tspan10983"
         x="-152"
         y="1049.6122"
         style="font-style:normal;font-variant:normal;font-weight:normal;font-stretch:normal;font-size:40px;line-height:125%;font-family:'Water Street';-inkscape-font-specification:'Water Street, Normal';text-align:start;writing-mode:lr-tb;text-anchor:start">Q</tspan></text>
    <text
       sodipodi:linespacing="125%"
       id="text10985"
       y="1049.6122"
       x="-112"
       style="font-style:normal;font-weight:normal;font-size:40px;line-height:125%;font-family:Sans;letter-spacing:0px;word-spacing:0px;fill:#000000;fill-opacity:1;stroke:none;stroke-width:1px;stroke-linecap:butt;stroke-linejoin:miter;stroke-opacity:1"
       xml:space="preserve"><tspan
         style="font-style:normal;font-variant:normal;font-weight:normal;font-stretch:normal;font-size:40px;line-height:125%;font-family:'Water Street';-inkscape-font-specification:'Water Street, Normal';text-align:start;writing-mode:lr-tb;text-anchor:start"
         y="1049.6122"
         x="-112"
         id="tspan10987"
         sodipodi:role="line">Q</tspan></text>
    <g
       id="g11068">
      <rect
         style="opacity:1;fill:#a07cbc;fill-opacity:1;stroke:none;stroke-width:3;stroke-linecap:round;stroke-linejoin:round;stroke-miterlimit:4;stroke-dasharray:none;stroke-opacity:1"
         id="rect11024"
         width="23.688078"
         height="47.376152"
         x="164.78186"
         y="862.14716"
         ry="3.3974934" />
      <rect
         ry="3.710865"
         y="862.14716"
         x="194.78186"
         height="51.745949"
         width="21.743534"
         id="rect11026"
         style="opacity:1;fill:#a07cbc;fill-opacity:1;stroke:none;stroke-width:3;stroke-linecap:round;stroke-linejoin:round;stroke-miterlimit:4;stroke-dasharray:none;stroke-opacity:1" />
      <rect
         ry="1.8767591"
         y="867.245"
         x="170.05162"
         height="37.710804"
         width="13.148557"
         id="rect11028"
         style="opacity:1;fill:#ffffff;fill-opacity:1;stroke:none;stroke-width:3;stroke-linecap:round;stroke-linejoin:round;stroke-miterlimit:4;stroke-dasharray:none;stroke-opacity:1" />
      <rect
         style="opacity:1;fill:#ffffff;fill-opacity:1;stroke:none;stroke-width:3;stroke-linecap:round;stroke-linejoin:round;stroke-miterlimit:4;stroke-dasharray:none;stroke-opacity:1"
         id="rect11030"
         width="11.564978"
         height="46.044434"
         x="199.87112"
         y="867.37"
         ry="1.9417441" />
      <rect
         ry="0"
         y="885.79401"
         x="187.83211"
         height="6.4464536"
         width="25.632624"
         id="rect11032"
         style="opacity:1;fill:#a07cbc;fill-opacity:1;stroke:none;stroke-width:3;stroke-linecap:round;stroke-linejoin:round;stroke-miterlimit:4;stroke-dasharray:none;stroke-opacity:1" />
      <rect
         style="opacity:1;fill:#a07cbc;fill-opacity:1;stroke:none;stroke-width:3;stroke-linecap:round;stroke-linejoin:round;stroke-miterlimit:4;stroke-dasharray:none;stroke-opacity:1"
         id="rect11034"
         width="17.677671"
         height="5.4464536"
         x="897.64819"
         y="-179.34912"
         ry="0"
         transform="matrix(0,1,-1,0,0,0)" />
      <rect
         ry="2.3697205"
         y="186.10367"
         x="-915.35461"
         height="33.044434"
         width="8.0119333"
         id="rect11036"
         style="opacity:1;fill:#ffffff;fill-opacity:1;stroke:none;stroke-width:3;stroke-linecap:round;stroke-linejoin:round;stroke-miterlimit:4;stroke-dasharray:none;stroke-opacity:1"
         transform="matrix(0,-1,1,0,0,0)" />
    </g>
    <rect
       transform="matrix(0.63359471,0.77366514,-0.77366514,0.63359471,0,0)"
       ry="0"
       y="682.33881"
       x="780.33698"
       height="5.4464536"
       width="12.020817"
       id="rect11038"
       style="opacity:1;fill:#a07cbc;fill-opacity:1;stroke:none;stroke-width:3;stroke-linecap:round;stroke-linejoin:round;stroke-miterlimit:4;stroke-dasharray:none;stroke-opacity:1"
       inkscape:transform-center-x="1.4142136"
       inkscape:transform-center-y="0.88388349" />
    <g
       id="g11040"
       transform="translate(0,260)">
      <rect
         ry="3.3974934"
         y="996.14716"
         x="6.0318542"
         height="47.376152"
         width="23.688078"
         id="rect10989"
         style="opacity:1;fill:#a07cbc;fill-opacity:1;stroke:none;stroke-width:3;stroke-linecap:round;stroke-linejoin:round;stroke-miterlimit:4;stroke-dasharray:none;stroke-opacity:1" />
      <rect
         style="opacity:1;fill:#a07cbc;fill-opacity:1;stroke:none;stroke-width:3;stroke-linecap:round;stroke-linejoin:round;stroke-miterlimit:4;stroke-dasharray:none;stroke-opacity:1"
         id="rect10991"
         width="21.743534"
         height="54.745949"
         x="34.031853"
         y="996.14716"
         ry="3.9260044" />
      <rect
         style="opacity:1;fill:#ffffff;fill-opacity:1;stroke:none;stroke-width:3;stroke-linecap:round;stroke-linejoin:round;stroke-miterlimit:4;stroke-dasharray:none;stroke-opacity:1"
         id="rect10993"
         width="13.148557"
         height="36.473366"
         x="11.301615"
         y="1001.245"
         ry="1.8151753" />
      <rect
         ry="1.9417441"
         y="1001.37"
         x="39.121132"
         height="46.044434"
         width="11.564978"
         id="rect10995"
         style="opacity:1;fill:#ffffff;fill-opacity:1;stroke:none;stroke-width:3;stroke-linecap:round;stroke-linejoin:round;stroke-miterlimit:4;stroke-dasharray:none;stroke-opacity:1" />
      <rect
         style="opacity:1;fill:#a07cbc;fill-opacity:1;stroke:none;stroke-width:3;stroke-linecap:round;stroke-linejoin:round;stroke-miterlimit:4;stroke-dasharray:none;stroke-opacity:1"
         id="rect10997"
         width="15.556352"
         height="5.3857932"
         x="37.158375"
         y="1020.3243"
         ry="0" />
      <rect
         transform="matrix(0,-1,1,0,0,0)"
         style="opacity:1;fill:#ffffff;fill-opacity:1;stroke:none;stroke-width:3;stroke-linecap:round;stroke-linejoin:round;stroke-miterlimit:4;stroke-dasharray:none;stroke-opacity:1"
         id="rect11001"
         width="5.5119333"
         height="33.044434"
         x="-1051.3546"
         y="27.353676"
         ry="2.3697205" />
      <rect
         transform="matrix(9.4664114e-4,0.99999955,-0.9999998,6.2848318e-4,0,0)"
         ry="0"
         y="-19.544437"
         x="1029.0435"
         height="5.4464531"
         width="18.274199"
         id="rect10999"
         style="opacity:1;fill:#a07cbc;fill-opacity:1;stroke:none;stroke-width:3;stroke-linecap:round;stroke-linejoin:round;stroke-miterlimit:4;stroke-dasharray:none;stroke-opacity:1" />
    </g>
    <g
       id="g11061"
       transform="translate(175,216)">
      <rect
         ry="2.4069645"
         y="1000.3414"
         x="5.6743345"
         height="36.270123"
         width="22.658318"
         id="rect11049"
         style="opacity:1;fill:none;fill-opacity:1;stroke:#a07cbc;stroke-width:5.33876896;stroke-linecap:round;stroke-linejoin:round;stroke-miterlimit:4;stroke-dasharray:none;stroke-opacity:1" />
      <rect
         style="opacity:1;fill:none;fill-opacity:1;stroke:#a07cbc;stroke-width:5.91010523;stroke-linecap:round;stroke-linejoin:round;stroke-miterlimit:4;stroke-dasharray:none;stroke-opacity:1"
         id="rect11053"
         width="22.086981"
         height="45.598282"
         x="35.960003"
         y="1000.627"
         ry="3.0260017" />
      <rect
         ry="1.0606601"
         y="1027.2598"
         x="13.965359"
         height="18.031223"
         width="5.4800773"
         id="rect11055"
         style="opacity:1;fill:#a07cbc;fill-opacity:1;stroke:none;stroke-width:5.9000001;stroke-linecap:round;stroke-linejoin:round;stroke-miterlimit:4;stroke-dasharray:none;stroke-opacity:1" />
      <rect
         transform="matrix(0,1,-1,0,0,0)"
         style="opacity:1;fill:#a07cbc;fill-opacity:1;stroke:none;stroke-width:5.9000001;stroke-linecap:round;stroke-linejoin:round;stroke-miterlimit:4;stroke-dasharray:none;stroke-opacity:1"
         id="rect11057"
         width="5.4800773"
         height="20.329321"
         x="1017.6255"
         y="-57.131817"
         ry="1.1958423" />
      <rect
         ry="0"
         y="1042.2482"
         x="31.750957"
         height="6.9937725"
         width="30.505072"
         id="rect11059"
         style="opacity:1;fill:#ffffff;fill-opacity:1;stroke:none;stroke-width:5.62374115;stroke-linecap:round;stroke-linejoin:round;stroke-miterlimit:4;stroke-dasharray:none;stroke-opacity:1" />
    </g>
    <path
       sodipodi:nodetypes="cscccccccccczcc"
       inkscape:connector-curvature="0"
       id="path11079"
       d="m -43.163738,925.7626 c -3.71233,0.054 -7.25751,1.5524 -9.88281,4.1777 -5.57257,5.5724 -5.57257,14.6073 0,20.1797 3.4648,3.4594 8.46132,4.1053 13.23633,3.0229 l 0,-5.2045 c -3.15903,1.2568 -6.76293,0.5144 -9.16797,-1.8887 -3.32382,-3.3255 -3.32382,-8.7155 0,-12.041 1.62755,-1.6279 3.84478,-2.5276 6.14648,-2.4942 2.21508,0.033 4.33019,0.9275 5.89649,2.4942 1.70307,1.7095 2.60102,4.0612 2.53976,5.263 l -0.0613,15.153 5.81836,0 c 0,0 -0.14518,-13.3467 -0.0252,-16.2781 0.11999,-2.9315 -1.5255,-5.5235 -4.20333,-8.2063 -2.72676,-2.7267 -6.44107,-4.2337 -10.29687,-4.1777 z"
       style="opacity:1;fill:#a07cbc;fill-opacity:1;stroke:none;stroke-width:3;stroke-linecap:round;stroke-linejoin:round;stroke-miterlimit:4;stroke-dasharray:none;stroke-opacity:1" />
    <path
       sodipodi:nodetypes="ccccccccccccccccc"
       id="path11081"
       d="m -66.060218,925.7626 c -3.712328,0.054 -7.257506,1.5524 -9.88282,4.1777 -5.572024,5.573 -5.571129,14.6078 0.002,20.1797 3.939087,3.9235 5.962711,3.37976 8.462863,4.19935 l -1.891162,2.40115 1.932623,5.81606 9.173006,-11.98803 -3.874774,-3.01221 -2.26225,2.45485 c -3.547881,-0.83729 -5.461895,-1.92987 -7.474066,-3.93947 -3.32381,-3.3255 -3.32381,-8.7155 0,-12.041 3.32576,-3.3251 8.7172,-3.3251 12.04296,0 2.486386,2.4868 3.188594,6.2462 1.76758,9.4629 l 3.46875,5.3047 c 4.411165,-5.6764 3.910668,-13.748 -1.16797,-18.836 -2.726772,-2.7267 -6.441074,-4.2337 -10.29687,-4.1777 z"
       style="opacity:1;fill:#a07cbc;fill-opacity:1;stroke:none;stroke-width:3;stroke-linecap:round;stroke-linejoin:round;stroke-miterlimit:4;stroke-dasharray:none;stroke-opacity:1"
       inkscape:connector-curvature="0" />
    <path
       sodipodi:nodetypes="cscccc"
       inkscape:connector-curvature="0"
       id="path11083"
       d="m -53.518768,949.6259 c -2.22434,-2.5378 -3.23912,-4.7821 -3.23912,-9.1946 0,-5.6013 -3.21762,-8.9282 -8.60713,-8.9282 -2.63532,-0.1444 -2.30882,2.52 -2.30882,2.52 l 13.65599,17.4126 z"
       style="fill:#ffffff;fill-opacity:1;fill-rule:evenodd;stroke:none;stroke-width:1px;stroke-linecap:butt;stroke-linejoin:miter;stroke-opacity:1" />
    <path
       sodipodi:nodetypes="ccccc"
       inkscape:connector-curvature="0"
       id="path11085"
       d="m -90.573211,960.19981 -3.498457,-4.7764 15.851862,-0.014 3.443043,4.7764 z"
       style="opacity:1;fill:#a07cbc;fill-opacity:1;stroke:none;stroke-width:3;stroke-linecap:round;stroke-linejoin:round;stroke-miterlimit:4;stroke-dasharray:none;stroke-opacity:1" />
    <g
       transform="matrix(0.9257615,0,0,0.9257615,5.5472468,76.783161)"
       id="g11147">
      <path
         style="opacity:1;fill:#5aa02c;fill-opacity:1;stroke:none;stroke-width:3;stroke-linecap:round;stroke-linejoin:round;stroke-miterlimit:4;stroke-dasharray:none;stroke-opacity:1"
         d="m 16.891079,1000.793 c -4.38108,0.065 -8.5652431,1.8339 -11.6634898,4.9322 -6.5757868,6.5769 -6.7670064,15.7033 -0.1898864,22.2789 1.9956219,2.1705 4.280849,4.6069 5.9728392,5.1212 l 2.91481,-4.1261 c -1.497027,-0.7493 -3.072567,-2.2313 -4.9534819,-4.0688 -3.9225713,-3.9247 -3.2500857,-11.0547 0.6724857,-14.9793 3.9248742,-3.9241 10.9589092,-4.115 14.8837822,-0.191 2.934292,2.9348 5.648272,7.0528 3.156652,12.4781 l 2.736614,5.7172 c 5.205806,-6.6989 4.614606,-16.2235 -1.378914,-22.228 -3.217981,-3.218 -7.601021,-4.9964 -12.151411,-4.9302 z m 4.533443,24.8713 -8.332882,11.8014 3.502441,4.5547 8.453803,-11.2286 z"
         id="path10969"
         inkscape:connector-curvature="0"
         sodipodi:nodetypes="cccccccccccccccccc" />
      <g
         id="g11116"
         style="fill:#8dd35f"
         transform="matrix(1.0861598,0,0,1.0861598,-5.9353713,-85.435597)">
        <path
           style="opacity:1;fill:#8dd35f;fill-opacity:1;stroke:none;stroke-width:3;stroke-linecap:round;stroke-linejoin:round;stroke-miterlimit:4;stroke-dasharray:none;stroke-opacity:1"
           d="m 41.832288,1012.3622 c -3.113137,0.046 -6.086102,1.3019 -8.287662,3.5034 -4.673122,4.6731 -4.673122,12.2496 0,16.9227 2.90556,2.9009 7.09561,3.4427 11.099904,2.5349 l 0,-4.3644 c -2.649143,1.0539 -5.671352,0.4313 -7.688203,-1.584 -2.787334,-2.7886 -2.787334,-7.3087 0,-10.0974 1.364853,-1.3652 3.224209,-2.1197 5.154399,-2.0917 1.857553,0.027 3.631271,0.7779 4.944761,2.0917 1.428184,1.4336 2.181199,3.4057 2.129827,4.4135 l -0.0514,12.7073 4.87924,0 c 0,0 -0.121747,-11.1926 -0.02113,-13.6508 0.100623,-2.4583 -1.279275,-4.6319 -3.524887,-6.8818 -2.286644,-2.2866 -5.401441,-3.5503 -8.634891,-3.5034 z"
           id="path10967"
           inkscape:connector-curvature="0"
           sodipodi:nodetypes="cscccccccccczcc" />
        <path
           style="opacity:1;fill:#8dd35f;fill-opacity:1;stroke:none;stroke-width:3;stroke-linecap:round;stroke-linejoin:round;stroke-miterlimit:4;stroke-dasharray:none;stroke-opacity:1"
           d="m 43.273543,1008.4953 -3.801172,-5.1897 10.809475,-0.015 3.740963,5.1897 z"
           id="path11091"
           inkscape:connector-curvature="0"
           sodipodi:nodetypes="ccccc" />
        <path
           sodipodi:nodetypes="ccccc"
           inkscape:connector-curvature="0"
           id="path11093"
           d="m 48.756859,1021.6974 5.189693,3.8012 0.01521,-17.2235 -5.189694,-3.7411 z"
           style="opacity:1;fill:#8dd35f;fill-opacity:1;stroke:none;stroke-width:3;stroke-linecap:round;stroke-linejoin:round;stroke-miterlimit:4;stroke-dasharray:none;stroke-opacity:1" />
        <path
           sodipodi:nodetypes="ccccc"
           inkscape:connector-curvature="0"
           id="path11095"
           d="m 58.808714,1031.1326 3.801172,5.2576 -10.531269,0.015 -1.567907,-5.2576 z"
           style="opacity:1;fill:#8dd35f;fill-opacity:1;stroke:none;stroke-width:3;stroke-linecap:round;stroke-linejoin:round;stroke-miterlimit:4;stroke-dasharray:none;stroke-opacity:1" />
      </g>
    </g>
    <path
       sodipodi:nodetypes="ccccccccccccccc"
       id="path11132"
       d="m 201.9544,1004.0643 c -4.03355,0.059 -7.88548,1.6867 -10.73796,4.5392 -6.05416,6.0552 -6.05319,15.8718 0.002,21.9258 5.2132,5.6701 11.21656,1.9962 7.14034,7.1716 l 3.32212,4.3193 7.78471,-10.3372 -3.46005,-4.8978 c -4.27975,6.1018 -6.88098,3.8581 -11.34131,-0.4994 -3.61141,-3.6133 -2.99269,-10.1767 0.61872,-13.79 3.61353,-3.6128 10.0902,-3.7896 13.70373,-0.1768 2.70153,2.702 5.19934,6.4938 2.90536,11.4888 l 2.5189,5.2637 c 4.79285,-6.1676 4.24905,-14.9376 -1.26903,-20.4658 -2.96272,-2.9627 -6.99841,-4.6001 -11.18784,-4.5392 z"
       style="opacity:1;fill:#3c6eb4;fill-opacity:1;stroke:none;stroke-width:3;stroke-linecap:round;stroke-linejoin:round;stroke-miterlimit:4;stroke-dasharray:none;stroke-opacity:1"
       inkscape:connector-curvature="0" />
    <rect
       style="opacity:1;fill:#ffffff;fill-opacity:1;stroke:none;stroke-width:5.9000001;stroke-linecap:round;stroke-linejoin:round;stroke-miterlimit:4;stroke-dasharray:none;stroke-opacity:1"
       id="rect11134"
       width="3.8707569"
       height="21.255209"
       x="-760.67358"
       y="712.67279"
       transform="matrix(-0.8169349,-0.5767299,-0.5767299,0.8169349,0,0)" />
    <g
       id="g11136"
       style="fill:#294172"
       transform="translate(180.93934,4)">
      <path
         style="opacity:1;fill:#294172;fill-opacity:1;stroke:none;stroke-width:3;stroke-linecap:round;stroke-linejoin:round;stroke-miterlimit:4;stroke-dasharray:none;stroke-opacity:1"
         d="m 41.832288,1012.3622 c -3.113137,0.046 -6.086102,1.3019 -8.287662,3.5034 -4.673122,4.6731 -4.673122,12.2496 0,16.9227 2.90556,2.9009 7.09561,3.4427 11.099904,2.5349 l 0,-4.3644 c -2.649143,1.0539 -5.671352,0.4313 -7.688203,-1.584 -2.787334,-2.7886 -2.787334,-7.3087 0,-10.0974 1.364853,-1.3652 3.224209,-2.1197 5.154399,-2.0917 1.857553,0.027 3.631271,0.7779 4.944761,2.0917 1.428184,1.4336 2.181199,3.4057 2.129827,4.4135 l -0.0514,12.7073 4.87924,0 c 0,0 -0.121747,-11.1926 -0.02113,-13.6508 0.100623,-2.4583 -1.279275,-4.6319 -3.524887,-6.8818 -2.286644,-2.2866 -5.401441,-3.5503 -8.634891,-3.5034 z"
         id="path11138"
         inkscape:connector-curvature="0"
         sodipodi:nodetypes="cscccccccccczcc" />
      <path
         style="opacity:1;fill:#294172;fill-opacity:1;stroke:none;stroke-width:3;stroke-linecap:round;stroke-linejoin:round;stroke-miterlimit:4;stroke-dasharray:none;stroke-opacity:1"
         d="m 43.273543,1008.4953 -3.801172,-5.1897 10.809475,-0.015 3.740963,5.1897 z"
         id="path11140"
         inkscape:connector-curvature="0"
         sodipodi:nodetypes="ccccc" />
      <path
         sodipodi:nodetypes="ccccc"
         inkscape:connector-curvature="0"
         id="path11142"
         d="m 48.756859,1021.6974 5.189693,3.8012 0.01521,-17.2235 -5.189694,-3.7411 z"
         style="opacity:1;fill:#294172;fill-opacity:1;stroke:none;stroke-width:3;stroke-linecap:round;stroke-linejoin:round;stroke-miterlimit:4;stroke-dasharray:none;stroke-opacity:1" />
      <path
         sodipodi:nodetypes="ccccc"
         inkscape:connector-curvature="0"
         id="path11144"
         d="m 58.808714,1031.1326 3.801172,5.2576 -10.531269,0.015 -1.567907,-5.2576 z"
         style="opacity:1;fill:#294172;fill-opacity:1;stroke:none;stroke-width:3;stroke-linecap:round;stroke-linejoin:round;stroke-miterlimit:4;stroke-dasharray:none;stroke-opacity:1" />
    </g>
  </g>
</svg>
