<?xml version="1.0" encoding="UTF-8" standalone="no"?>
<!-- Created with Inkscape (http://www.inkscape.org/) -->
<svg id="svg53383" xmlns:rdf="http://www.w3.org/1999/02/22-rdf-syntax-ns#" xmlns="http://www.w3.org/2000/svg" sodipodi:docname="applications-system.svg" xmlns:sodipodi="http://inkscape.sourceforge.net/DTD/sodipodi-0.dtd" height="48px" sodipodi:version="0.32" width="48px" xmlns:cc="http://web.resource.org/cc/" xmlns:xlink="http://www.w3.org/1999/xlink" sodipodi:docbase="/home/jimmac/src/cvs/tango-icon-theme/scalable/categories" xmlns:dc="http://purl.org/dc/elements/1.1/">
 <defs id="defs3">
  <radialGradient id="radialGradient2308" fy="72.568" cx="14.288" gradientUnits="userSpaceOnUse" cy="68.873" r="11.69" gradientTransform="matrix(1.3993 -2.2344e-7 8.1962e-8 .51326 4.3651 4.8393)">
   <stop id="stop2302" stop-opacity=".32673" offset="0"/>
   <stop id="stop2304" stop-opacity="0" offset="1"/>
  </radialGradient>
  <linearGradient id="linearGradient3773" y2="248.63" gradientUnits="userSpaceOnUse" x2="153" gradientTransform="matrix(.20068 0 0 .20068 -54.336 -1.0508)" y1="15.424" x1="99.777">
   <stop id="stop53300" stop-color="#184375" offset="0"/>
   <stop id="stop53302" stop-color="#C8BDDC" offset="1"/>
  </linearGradient>
 </defs>
 <sodipodi:namedview id="base" bordercolor="#666666" pagecolor="#ffffff" showgrid="false" borderopacity="0.11764706"/>
 <metadata id="metadata4">
  <rdf:RDF>
   <cc:Work rdf:about="">
    <dc:format>image/svg+xml</dc:format>
    <dc:type rdf:resource="http://purl.org/dc/dcmitype/StillImage"/>
    <dc:title>System Applications</dc:title>
    <dc:creator>
     <cc:Agent>
      <dc:title>Jakub Steiner</dc:title>
     </cc:Agent>
    </dc:creator>
    <dc:source>http://jimmac.musichall.cz/</dc:source>
    <dc:subject>
     <rdf:Bag>
      <rdf:li>system</rdf:li>
      <rdf:li>applications</rdf:li>
      <rdf:li>group</rdf:li>
      <rdf:li>category</rdf:li>
      <rdf:li>admin</rdf:li>
      <rdf:li>root</rdf:li>
     </rdf:Bag>
    </dc:subject>
    <cc:license rdf:resource="http://creativecommons.org/licenses/by/2.0/"/>
   </cc:Work>
   <cc:License rdf:about="http://creativecommons.org/licenses/by/2.0/">
    <cc:permits rdf:resource="http://web.resource.org/cc/Reproduction"/>
    <cc:permits rdf:resource="http://web.resource.org/cc/Distribution"/>
    <cc:requires rdf:resource="http://web.resource.org/cc/Notice"/>
    <cc:requires rdf:resource="http://web.resource.org/cc/Attribution"/>
    <cc:permits rdf:resource="http://web.resource.org/cc/DerivativeWorks"/>
    <cc:requires rdf:resource="http://web.resource.org/cc/ShareAlike"/>
   </cc:License>
  </rdf:RDF>
 </metadata>
 <g id="layer2">
  <path id="path1538" sodipodi:rx="19.928572" sodipodi:ry="9.8372450" style="color:#000000" sodipodi:type="arc" d="m44.286 38.714a19.929 9.8372 0 1 1 -39.857 0 19.929 9.8372 0 1 1 39.857 0z" fill-rule="evenodd" transform="matrix(1.1864 0 0 1.1864 -4.5397 -7.7947)" sodipodi:cy="38.714287" sodipodi:cx="24.357143" fill="url(#radialGradient2308)"/>
 </g>
 <g id="layer1">
  <path id="path3243" stroke-linejoin="round" style="color:#000000" d="m22.7 0.94747c-0.474 0.03238-0.934 0.10563-1.398 0.15883h-0.032l-1.112 6.068c-1.812 0.4127-3.517 1.1132-5.051 2.065l-4.988-3.59c-1.3485 1.0468-2.5754 2.2677-3.6536 3.59l3.4628 5.0517c-1.0514 1.606-1.842 3.441-2.2874 5.369v0.031l-6.0361 0.953c-0.1104 0.902-0.1589 1.833-0.1589 2.764 0 0.762 0.021 1.514 0.0953 2.256l6.0362 1.08c0.4293 2.096 1.2448 4.054 2.3827 5.782l-3.5899 4.924c1.0281 1.277 2.2151 2.439 3.4946 3.463l5.0833-3.494c1.776 1.133 3.759 1.928 5.909 2.319l0.953 6.004c0.677 0.062 1.372 0.064 2.065 0.064 0.979 0 1.914-0.037 2.859-0.159l1.144-6.132c2.041-0.507 3.958-1.389 5.623-2.573l4.893 3.558c1.268-1.079 2.429-2.32 3.431-3.653l-3.558-5.147c0.963-1.664 1.631-3.5 1.969-5.464l6.005-0.953c0.052-0.627 0.063-1.234 0.063-1.875 0-1.112-0.129-2.203-0.286-3.272l-6.099-1.112c-0.478-1.765-1.263-3.412-2.256-4.892l3.59-4.9245c-1.113-1.3608-2.382-2.618-3.781-3.6852l-5.178 3.5581c-1.488-0.8802-3.09-1.5556-4.829-1.9379l-0.953-6.0362c-0.868-0.102-1.742-0.15883-2.637-0.15883-0.242 0-0.491-0.00761-0.731 0-0.117 0.00371-0.232-0.00681-0.349 0-0.032 0.00184-0.064-0.00216-0.095 0zm0.826 15.44c0.116-0.006 0.231 0 0.349 0 3.761 0 6.83 3.07 6.83 6.831 0 3.76-3.069 6.798-6.83 6.798s-6.799-3.038-6.799-6.798c0-3.643 2.852-6.648 6.45-6.831z" stroke="#3f4561" stroke-linecap="round" fill="url(#linearGradient3773)"/>
  <path id="path3283" sodipodi:rx="12.727922" sodipodi:ry="12.727922" stroke="#fff" stroke-width="1.6218" fill="none" style="color:#000000" transform="matrix(.61660 0 0 .61660 9.382 8.5397)" opacity=".64773" sodipodi:type="arc" d="m36.239 23.782a12.728 12.728 0 1 1 -25.456 0 12.728 12.728 0 1 1 25.456 0z" sodipodi:cy="23.781593" sodipodi:cx="23.511301"/>
  <path id="path3285" opacity=".34659" style="color:#000000" d="m21.996 2.1485l-0.893 5.875c-1.699 0.3869-4.824 1.5701-6.261 2.4625l-4.75-3.5454c-1.2639 0.9812-1.3505 1.0478-2.3611 2.2872l3.4341 5.0932c-0.985 1.506-2.1692 4.19-2.5942 6.108l-6.0178 1.014c-0.1035 0.845-0.0537 2.654 0.0159 3.349l5.7482 1.036c0.4024 1.965 1.9079 5.127 2.9749 6.747l-3.6351 4.803c0.9637 1.196 1.1566 1.306 2.3561 2.266l4.86-3.561c1.666 1.062 4.971 2.354 6.986 2.721l0.797 5.801c0.635 0.058 2.389 0.22 3.275 0.106l0.893-6.039c1.913-0.476 5.219-1.833 6.779-2.943l4.856 3.508c1.189-1.012 1.2-1.164 2.139-2.414l-3.598-5.114c0.903-1.56 2.071-4.611 2.388-6.452l5.891-0.977c0.049-0.588 0.052-2.225-0.095-3.228l-6.002-1.035c-0.448-1.655-1.986-4.636-2.917-6.024l3.815-4.8022c-1.043-1.2756-1.431-1.4506-2.742-2.451l-5.024 3.5982c-1.395-0.8252-4.177-2.083-5.807-2.4413l-0.887-5.7482c-0.814-0.0957-3.16-0.0532-3.624 0z" sodipodi:nodetypes="ccccccccccccccccccccccccccccccccc" stroke="#fff" fill="none"/>
  <path id="path3767" opacity=".5" style="color:#000000" sodipodi:nodetypes="cccccccccsccccccccccccccccccccsccccc" fill="#fff" d="m10.103 6.2971c-1.3484 1.0468-1.9374 1.6748-3.0155 2.9971l3.4025 4.9648c-1.0515 1.599-2.1584 4.167-2.3476 5.729l-6.0625 1.044c-0.069 0.563-0.1737 1.853-0.1737 1.853l0.1768 1.562c0.4278 0.089 0.8402 0.171 1.2813 0.219l0.5-1.531c0.344 0.028 0.6796 0.062 1.0312 0.062 0.3512 0 0.7185-0.034 1.0625-0.062l0.4688 1.531c0.4413-0.048 0.8847-0.13 1.3125-0.219v-1.562c0.6857-0.16 1.332-0.388 1.9687-0.656l0.938 1.281c0.402-0.182 0.775-0.376 1.156-0.594l-0.5-1.5c0.597-0.362 1.162-0.795 1.687-1.25l1.282 0.938c0.325-0.297 0.641-0.612 0.937-0.938l-0.937-1.25c0.454-0.526 0.856-1.09 1.218-1.687l1.5 0.468c0.218-0.381 0.444-0.754 0.625-1.156l-1.281-0.937c0.269-0.637 0.465-1.283 0.625-1.969h1.594c0.088-0.428 0.139-0.871 0.187-1.313l-1.5-0.468c0.029-0.344 0.063-0.712 0.063-1.063s-0.034-0.687-0.063-1.0312l1.5-0.4687c-0.045-0.4199-0.105-0.842-0.187-1.25-1.148 0.3993-2.553 1.1531-3.569 1.7834l-4.88-3.5274z"/>
  <path id="path3770" opacity=".5" style="color:#000000" d="m37.237 17.218c-0.384 0.181-0.747 0.386-1.114 0.595l0.57 1.735c-0.697 0.422-1.355 0.92-1.968 1.45l-1.476-1.087c-0.38 0.346-0.742 0.707-1.087 1.087l1.087 1.476c-0.53 0.613-1.027 1.271-1.45 1.968l-0.544-0.181c-0.047 0.7-0.236 1.361-0.518 1.968l0.104 0.077c-0.313 0.743-0.565 1.531-0.751 2.331h-1.476c-0.136 0.085-0.27 0.185-0.414 0.259-0.078 0.415-0.135 0.817-0.181 1.242l1.76 0.57c-0.033 0.401-0.051 0.807-0.051 1.217s0.018 0.816 0.051 1.217l-1.76 0.57c0.056 0.514 0.13 1.028 0.233 1.527l1.838-0.026c0.128 0.55 0.303 1.108 0.492 1.632 0.745-0.288 1.474-0.63 2.149-1.036-0.411-1.216-0.647-2.529-0.647-3.884 0-5.198 3.292-9.637 7.897-11.341l-1.087-0.181c-0.223-0.823-0.512-1.629-0.881-2.383-0.01-0.022-0.014-0.055-0.025-0.077l-0.052-0.052-0.699-0.673z" fill="#fff"/>
 </g>
</svg>
