<?xml version="1.0" encoding="UTF-8" standalone="no"?>
<svg width="24" height="24" viewBox="0 0 24 24" xmlns="http://www.w3.org/2000/svg">
  <rect x="2" y="2" width="20" height="20" rx="6" ry="6" fill="#aaaaaa" />
  <path d="m 6.3744266,6.2312 c -1.771702,0.025 -3.4309811,0.7278 -4.6601561,1.957 -2.43164883,2.6979 -1.86820453,6.9869 -0.1542969,8.7266 1.7139078,1.7397 3.0996094,1.9218 3.0996094,1.9218 l 0.9785156,-2.3456 c -0.5068951,-0.2538 -1.87809,-1.1527 -2.4628906,-2.1504 -0.5848007,-0.9977 -0.6052241,-3.2596 1.1445312,-4.6485 1.7497553,-1.3888 3.9841699,-0.8087 4.9042957,0.4024 0.9201291,1.2111 1.1658381,2.159 0.8678021,4.801 l -0.0026,0.014 c -0.5329541,1.8284 -0.07067,3.857 1.371095,5.2988 1.308985,1.3069 2.97532,1.5515 4.779297,1.1425 l -0.04102,-2.2812 c -1.066824,0.4244 -2.062804,0.1729 -2.875,-0.6387 -1.122474,-1.1229 -1.122474,-2.9433 0,-4.0664 0.549633,-0.5497 1.296921,-0.8531 2.074219,-0.8418 0.748046,0.011 1.463238,0.3128 1.992187,0.8418 0.575137,0.5774 0.801938,1.3872 0.78125,1.793 l -0.06055,5.375 h 1.28125 l 0.0098,0.01 h 2.255859 l 0.742188,-2.0039 -2.1875,-0.01 c -0.007,-1.4735 -0.0096,-3.1809 0.01758,-3.8457 0.04533,-1.1075 -0.07231,-2.1192 -1.083984,-3.1328 -1.030141,-1.0302 -2.401567,-1.5255 -3.804671,-1.5255 -0.827556,0 -1.682166,0.2015 -2.449219,0.5664 -0.120502,-1.5578 -0.821911,-2.8509 -1.761718,-3.6699 -1.8688321,-1.6285 -2.9841577,-1.7166 -4.7558596,-1.6914 z m 0.3378908,8.8828 -1.8945312,5.0098 1.8515623,1.2656 1.8203124,-4.7715 z" fill="white" fill-opacity="0.8" />
</svg>
